<?xml version="1.0" encoding="UTF-8"?>
<svg xmlns="http://www.w3.org/2000/svg" xmlns:xlink="http://www.w3.org/1999/xlink" width="85px" height="85px" viewBox="0 0 85 85" version="1.1">
<g id="surface1">
<path style=" stroke:none;fill-rule:nonzero;fill:rgb(0%,0%,0%);fill-opacity:1;" d="M 51.238281 31.597656 C 50.902344 31.632812 50.769531 31.34375 50.621094 31.140625 C 49.5 29.613281 48 28.554688 46.351562 27.679688 C 43.703125 26.277344 40.933594 25.164062 37.984375 24.574219 C 35.125 24 32.257812 23.96875 29.378906 24.511719 C 23.027344 25.703125 17.550781 28.644531 12.738281 32.875 C 11.324219 34.117188 9.910156 35.40625 8.910156 37.023438 C 7.941406 38.589844 7.050781 40.207031 6.273438 41.886719 C 4.722656 45.246094 3.652344 48.738281 3.207031 52.421875 C 3.082031 53.449219 3.101562 54.46875 3.15625 55.5 C 3.542969 53.890625 4.132812 52.316406 3.925781 50.585938 C 4.382812 55.457031 5.628906 59.988281 8.992188 63.710938 L 8.300781 58.730469 L 8.527344 58.628906 C 9.453125 59.742188 10.101562 61.097656 11.347656 61.988281 C 10.640625 58.402344 10.710938 54.828125 10.957031 51.21875 C 11.207031 47.601562 11.9375 44.125 12.984375 40.695312 L 13.300781 40.730469 C 11.902344 44.632812 11.398438 48.546875 12.992188 52.652344 C 13.144531 50.226562 13.398438 47.972656 13.953125 45.761719 C 14.03125 45.453125 14.011719 45.449219 13.621094 45.054688 C 13.890625 44.816406 14.257812 44.714844 14.378906 44.277344 C 15.277344 41.023438 16.429688 38.488281 18.179688 36.042969 C 19.574219 34.09375 21.359375 32.515625 23.203125 31.011719 C 23.324219 30.914062 23.460938 30.828125 23.746094 30.921875 C 22.96875 31.683594 22.082031 32.265625 21.410156 33.152344 C 22.890625 33.269531 23.996094 32.398438 25.242188 32.015625 C 26.386719 31.664062 27.5 31.210938 28.628906 30.820312 C 28.820312 30.753906 29.035156 30.679688 29.25 30.792969 C 29.203125 31.003906 29.019531 31.007812 28.882812 31.050781 C 27.128906 31.628906 25.414062 32.3125 23.710938 33.023438 C 22.167969 33.667969 20.632812 34.371094 19.355469 35.441406 C 18.554688 36.117188 17.859375 36.980469 17.675781 38.117188 C 17.601562 38.582031 17.847656 38.738281 18.195312 38.898438 C 19.355469 39.441406 20.558594 39.519531 21.816406 39.390625 C 24.453125 39.117188 27.074219 38.785156 29.648438 38.113281 C 32.273438 37.429688 34.84375 36.585938 37.390625 35.664062 C 37.695312 35.550781 38 35.417969 38.355469 35.492188 C 35.8125 36.582031 33.203125 37.492188 30.539062 38.234375 C 27.859375 38.976562 25.117188 39.386719 22.363281 39.789062 C 23.171875 40.058594 24.011719 40.050781 24.832031 40.085938 C 29.472656 40.28125 34.070312 39.894531 38.601562 38.894531 C 41.339844 38.289062 44.070312 37.609375 46.652344 36.472656 C 47.375 36.15625 48.082031 35.816406 48.667969 35.273438 C 48.765625 35.183594 48.878906 35.082031 48.992188 35.15625 C 46.167969 44.910156 45.867188 54.785156 47.289062 64.765625 C 47.179688 60.820312 47.640625 56.917969 48.183594 52.941406 C 48.359375 53.398438 48.324219 53.777344 48.195312 54.882812 C 48.015625 56.441406 47.828125 58.003906 47.757812 59.570312 C 47.683594 61.179688 47.566406 62.789062 47.617188 64.402344 C 47.699219 67.1875 48.023438 69.917969 49.136719 72.511719 C 49.519531 73.402344 50.238281 73.957031 51.011719 74.628906 C 51.617188 73.621094 52.179688 72.660156 52.757812 71.714844 C 53.53125 70.449219 53.527344 69.011719 53.683594 67.617188 C 53.824219 66.390625 54.035156 65.167969 54.070312 63.929688 C 54.089844 63.164062 54.128906 62.398438 54.171875 61.636719 C 54.183594 61.410156 54.113281 61.160156 54.394531 60.976562 C 54.453125 63.804688 54.265625 66.621094 53.886719 69.4375 C 54.609375 68.347656 55.15625 67.175781 55.683594 66 C 56.527344 64.121094 57.347656 62.230469 58.015625 60.273438 C 58.617188 58.503906 58.792969 56.675781 59 54.84375 C 59.226562 52.859375 59.089844 50.875 58.945312 48.902344 C 58.828125 47.246094 58.59375 45.585938 58.027344 43.996094 C 57.964844 43.820312 57.878906 43.640625 57.925781 43.390625 C 58.347656 43.578125 58.359375 43.980469 58.425781 44.277344 C 58.703125 45.558594 59.121094 46.816406 59.175781 48.136719 C 59.191406 48.492188 59.5625 48.445312 59.660156 48.753906 C 59.996094 49.820312 60.082031 50.914062 60.121094 52.011719 C 60.203125 54.460938 59.617188 56.808594 58.863281 59.105469 C 57.714844 62.582031 56.289062 65.949219 54.597656 69.195312 C 53.128906 72.023438 51.492188 74.753906 49.65625 77.359375 C 48.597656 78.859375 47.507812 80.320312 46.21875 81.621094 C 44.878906 82.972656 43.363281 84.078125 41.640625 84.847656 C 42.816406 84.652344 45.886719 83.476562 47.886719 81.777344 C 49.683594 80.246094 51.179688 78.453125 52.664062 76.632812 C 52.894531 76.851562 52.765625 76.980469 52.6875 77.058594 C 51.699219 78.070312 51.359375 79.398438 50.921875 80.675781 C 50.589844 81.632812 50.1875 82.5625 49.636719 83.515625 C 50.519531 83.449219 51.101562 82.933594 51.863281 82.640625 C 51.171875 83.449219 49.695312 84.4375 46.847656 84.359375 C 47.425781 84.835938 48.132812 84.757812 48.722656 85.09375 C 48.320312 85.117188 47.886719 85.117188 47.363281 85.089844 C 46.84375 84.78125 46.277344 84.667969 45.964844 84.222656 C 45.628906 83.742188 45.332031 83.828125 44.960938 84.203125 L 45.570312 85.117188 L 37.832031 85.117188 C 38.070312 84.90625 38.421875 84.964844 38.75 84.917969 C 41.867188 84.464844 43.957031 82.636719 45.304688 79.910156 C 46.367188 77.753906 47.855469 76.007812 49.804688 74.636719 C 49.882812 74.582031 49.933594 74.496094 49.988281 74.433594 C 49.980469 74.371094 49.988281 74.316406 49.964844 74.296875 C 48.359375 72.800781 48.054688 70.738281 47.597656 68.761719 C 47.144531 66.789062 46.773438 64.796875 46.570312 62.785156 C 46.335938 60.425781 45.941406 58.070312 46.046875 55.683594 C 46.066406 55.15625 45.964844 54.707031 45.621094 54.265625 C 45.070312 53.550781 44.5625 52.78125 44.382812 51.875 C 44.3125 51.5 43.984375 51.492188 43.75 51.285156 C 44.03125 50.992188 44.378906 51.101562 44.683594 51.09375 C 46.105469 51.050781 46.066406 51.058594 46.152344 49.65625 C 46.359375 46.359375 46.671875 43.078125 47.476562 39.863281 C 47.710938 38.917969 47.96875 37.964844 47.878906 36.859375 C 47.210938 37.125 46.628906 37.417969 46.023438 37.644531 C 45.375 37.890625 44.726562 38.027344 44.039062 38.015625 C 43.902344 38.011719 43.707031 37.953125 43.640625 38.019531 C 43.097656 38.589844 42.242188 38.148438 41.660156 38.804688 C 41.664062 38.757812 41.796875 38.695312 41.851562 38.816406 C 41.636719 39.011719 41.320312 39.03125 41.070312 39.019531 C 39.78125 38.949219 38.578125 39.378906 37.359375 39.671875 C 36.40625 39.902344 35.460938 40.105469 34.480469 40.136719 C 33.953125 40.152344 33.976562 40.496094 34.054688 40.835938 C 34.21875 41.5625 34.367188 42.292969 34.449219 43.035156 C 34.464844 43.1875 34.519531 43.347656 34.289062 43.503906 C 34.085938 42.769531 33.449219 43.082031 32.976562 42.957031 C 31.597656 42.582031 30.300781 42.015625 29.160156 41.152344 C 28.585938 40.71875 28.003906 40.5 27.269531 40.523438 C 25.003906 40.589844 22.75 40.464844 20.519531 40.039062 C 19.789062 39.902344 19.058594 39.71875 18.382812 39.398438 C 17.976562 39.207031 17.714844 39.269531 17.425781 39.628906 C 16.699219 40.535156 16.011719 41.457031 15.71875 42.609375 C 15.636719 42.9375 15.113281 43.171875 15.359375 43.519531 C 15.539062 43.773438 15.957031 43.863281 16.273438 44.019531 C 17.453125 44.605469 18.632812 45.183594 19.738281 45.878906 C 20.144531 45.421875 20.144531 45.421875 19.125 44.71875 C 19.671875 44.722656 20.132812 44.863281 20.457031 45.070312 C 21.765625 45.898438 23.136719 46.652344 24.175781 47.839844 C 24.433594 48.132812 24.808594 48.398438 24.605469 49.050781 C 23.539062 47.53125 22.226562 46.453125 20.644531 45.613281 C 20.503906 46.167969 20.648438 46.484375 21.015625 46.738281 C 22.546875 47.804688 23.777344 49.179688 24.949219 50.613281 C 25.082031 50.777344 25.21875 50.953125 25.191406 51.191406 C 25.101562 51.300781 25.015625 51.226562 24.929688 51.183594 C 24.5 50.980469 24.210938 51.132812 24.234375 51.605469 C 24.261719 52.222656 24.203125 52.800781 23.773438 53.425781 C 22.464844 51.882812 20.960938 50.582031 19.382812 49.371094 C 17.820312 48.171875 16.269531 46.933594 14.304688 46.328125 C 13.722656 48.875 13.25 51.355469 13.261719 53.941406 C 12.539062 52.988281 12.34375 51.835938 11.90625 50.6875 C 11.597656 51.128906 11.441406 51.5625 11.398438 52.011719 C 11.183594 54.105469 11.046875 56.199219 11.257812 58.308594 C 11.40625 59.8125 11.496094 61.320312 12.117188 62.730469 C 12.148438 62.792969 12.136719 62.878906 12.164062 63.105469 C 10.875 62.480469 10.0625 61.46875 9.148438 60.550781 C 9.332031 62.257812 9.792969 63.859375 10.765625 65.394531 C 9.75 65.292969 9.222656 64.628906 8.675781 64.085938 C 7.425781 62.839844 6.511719 61.355469 5.824219 59.722656 C 5.285156 58.433594 4.804688 57.128906 4.523438 55.753906 C 4.5 55.632812 4.488281 55.476562 4.304688 55.382812 C 3.078125 56.410156 3.585938 57.863281 3.425781 59.230469 C 2.875 58.714844 3.265625 57.894531 2.675781 57.441406 C 2.488281 60.097656 2.503906 62.699219 3.136719 65.238281 C 3.5 66.699219 3.84375 68.175781 4.441406 69.574219 C 4.863281 70.566406 5.144531 71.613281 5.71875 72.542969 C 6.457031 73.730469 7.328125 74.8125 8.246094 75.863281 C 8.257812 75.878906 8.273438 75.886719 8.289062 75.902344 C 9.277344 76.945312 9.257812 77.058594 7.925781 77.445312 C 7.164062 77.664062 6.664062 78.214844 6.214844 78.804688 C 5.976562 79.117188 6.265625 79.621094 6.75 79.800781 C 7.6875 80.152344 8.632812 80.476562 9.570312 80.832031 C 10.265625 81.097656 10.925781 81.457031 11.644531 81.667969 C 11.957031 81.757812 12.246094 81.957031 12.597656 81.746094 C 12.773438 81.640625 12.921875 81.820312 13.066406 81.917969 C 13.4375 82.167969 13.8125 82.421875 14.207031 82.691406 C 14.394531 81.914062 14.8125 82.320312 15.121094 82.488281 C 16.195312 83.082031 17.214844 83.769531 18.335938 84.28125 C 18.992188 84.582031 19.652344 84.878906 20.390625 85.089844 C 17.746094 85.117188 15.066406 85.117188 12.316406 85.078125 C 11.867188 84.195312 10.605469 83.378906 9.726562 83.464844 C 9.894531 84.019531 9.878906 84.574219 9.679688 85.117188 C 7.042969 85.117188 4.402344 85.117188 1.710938 85.070312 C 1.765625 84.484375 1.84375 83.9375 1.988281 83.40625 C 2.238281 82.496094 2.144531 81.492188 2.609375 80.660156 C 3.304688 79.40625 3.214844 78.09375 3.050781 76.773438 C 2.9375 75.855469 3.078125 74.941406 2.988281 74.023438 C 2.882812 72.941406 3.003906 71.824219 2.367188 70.84375 C 2.128906 70.476562 1.988281 70.0625 1.910156 69.632812 C 1.730469 68.628906 1.601562 67.609375 1.359375 66.621094 C 1.191406 65.945312 1.175781 65.0625 0.117188 65.046875 C 0.117188 61.621094 0.117188 58.195312 0.152344 54.730469 C 0.332031 54.875 0.648438 54.960938 0.550781 55.292969 C 0.429688 55.6875 0.667969 55.898438 0.929688 56.113281 C 1.28125 55.714844 1.433594 54.855469 1.179688 54.585938 C 0.886719 54.269531 0.511719 54.226562 0.117188 54.421875 C 0.117188 53.003906 0.117188 51.585938 0.160156 50.125 C 0.839844 50.292969 1.394531 50.675781 1.976562 50.996094 C 2.433594 51.246094 2.582031 51.574219 2.398438 52.066406 C 2.210938 52.5625 2.042969 53.066406 1.867188 53.566406 C 1.765625 53.847656 1.925781 53.957031 2.15625 54.035156 C 2.40625 54.128906 2.515625 54.015625 2.578125 53.785156 C 2.707031 53.308594 2.773438 52.824219 2.8125 52.332031 C 2.882812 51.476562 2.515625 50.890625 1.800781 50.425781 C 1.265625 50.082031 0.648438 49.921875 0.117188 49.582031 C 0.117188 49.496094 0.117188 49.40625 0.160156 49.269531 C 0.964844 49.5 1.675781 49.875 2.308594 50.382812 C 2.691406 50.6875 2.996094 50.546875 3.0625 50.164062 C 3.265625 48.941406 3.949219 47.789062 3.597656 46.488281 C 3.511719 46.160156 3.605469 45.832031 3.769531 45.582031 C 4.332031 44.722656 3.917969 44.070312 3.390625 43.425781 C 3.230469 43.226562 3.085938 42.996094 2.878906 42.863281 C 2.492188 42.621094 2.167969 42.175781 1.6875 42.199219 C 1.277344 42.222656 0.878906 42.335938 0.480469 42.164062 C 0.261719 42.070312 0.226562 42.289062 0.117188 42.382812 C 0.117188 41.515625 0.117188 40.644531 0.15625 39.734375 C 1.9375 41.003906 3.527344 42.464844 4.644531 44.515625 C 5.035156 43.621094 5.367188 42.871094 5.691406 42.117188 C 5.773438 41.925781 5.628906 41.785156 5.542969 41.636719 C 4.289062 39.476562 2.222656 38.308594 0.117188 37.1875 L 0.117188 35.941406 C 0.960938 34.632812 1.960938 33.488281 2.820312 32.257812 C 3.738281 30.945312 4.582031 29.570312 5.5 28.25 C 7.316406 25.636719 9.574219 23.488281 12.226562 21.734375 C 13.964844 20.582031 15.683594 19.40625 17.601562 18.566406 C 18.789062 18.042969 19.914062 18.113281 20.976562 18.941406 C 22.492188 20.125 23.726562 21.511719 24.394531 23.339844 C 24.480469 23.578125 24.558594 23.835938 24.5625 24.085938 C 24.566406 24.621094 24.796875 24.703125 25.273438 24.570312 C 26.582031 24.203125 27.925781 24.039062 29.28125 23.96875 C 30.949219 23.882812 32.617188 23.789062 34.289062 23.800781 C 36.933594 23.820312 39.476562 24.34375 41.945312 25.25 C 44.238281 26.09375 46.464844 27.082031 48.484375 28.476562 C 49.644531 29.28125 50.621094 30.261719 51.238281 31.597656 M 12.449219 26.714844 C 11.414062 27.1875 10.359375 27.617188 9.347656 28.144531 C 6.660156 29.539062 4.21875 31.269531 2.257812 33.617188 C 1.496094 34.535156 0.726562 35.453125 0.285156 36.609375 C 1.160156 37.265625 2.148438 37.6875 2.976562 38.351562 C 3.554688 38.816406 4.347656 38.667969 4.828125 38.078125 C 5.335938 37.453125 5.550781 36.640625 6.179688 36.085938 C 6.589844 35.722656 7.066406 35.4375 7.441406 35.050781 C 9.46875 32.957031 11.417969 30.789062 13.941406 29.238281 C 16.140625 27.886719 18.433594 26.734375 20.851562 25.835938 C 21.507812 25.59375 22.199219 25.433594 22.816406 25.097656 C 22.785156 24.753906 22.5625 24.574219 22.367188 24.390625 C 20.757812 22.859375 18.859375 22.21875 16.644531 22.519531 C 16.128906 22.589844 15.605469 22.707031 15.082031 22.585938 C 17.179688 21.738281 20.75 21.675781 23.484375 24.835938 C 23.601562 24.59375 23.886719 24.730469 24.046875 24.601562 C 24.132812 23.933594 23.984375 23.34375 23.675781 22.804688 C 23.125 21.832031 22.511719 20.882812 21.734375 20.085938 C 20.035156 18.339844 19.03125 18.300781 17.398438 19.101562 C 15.1875 20.1875 13.167969 21.589844 11.175781 23.023438 C 8.695312 24.808594 6.800781 27.128906 5.082031 29.613281 C 4.851562 29.949219 4.5 30.234375 4.402344 30.859375 C 5.839844 29.644531 7.308594 28.75 8.742188 27.804688 C 9.078125 27.582031 9.339844 27.179688 9.769531 27.175781 C 10.230469 27.167969 10.574219 26.882812 10.984375 26.773438 C 11.566406 26.625 12.152344 26.492188 12.738281 26.355469 L 12.785156 26.476562 C 12.695312 26.542969 12.609375 26.609375 12.449219 26.714844 M 8.457031 35.695312 C 8.59375 35.574219 8.597656 35.3125 8.964844 35.300781 C 8.613281 36.183594 8.058594 36.941406 7.90625 37.957031 C 8.308594 37.324219 8.628906 36.761719 9.011719 36.246094 C 10.71875 33.957031 12.84375 32.097656 15.09375 30.363281 C 16.15625 29.542969 17.308594 28.867188 18.453125 28.175781 C 18.863281 27.929688 19.132812 27.582031 19.234375 27.007812 C 16.789062 27.921875 14.601562 29.035156 13.042969 31.292969 C 12.941406 30.757812 13.285156 30.59375 13.335938 30.230469 C 13.128906 30.359375 12.992188 30.433594 12.871094 30.527344 C 11.089844 31.898438 9.457031 33.417969 8.042969 35.175781 C 7.007812 36.464844 5.980469 37.753906 5.324219 39.289062 C 5.003906 40.042969 5.289062 40.792969 6.066406 41.242188 C 6.121094 41.167969 6.183594 41.09375 6.234375 41.015625 C 6.683594 40.339844 6.753906 39.542969 6.964844 38.789062 C 7.265625 37.695312 7.914062 36.769531 8.457031 35.695312 M 33.875 41.382812 C 33.804688 41.136719 33.742188 40.890625 33.65625 40.648438 C 33.527344 40.292969 33.289062 40.136719 32.882812 40.1875 C 32.125 40.289062 31.359375 40.324219 30.601562 40.429688 C 30.121094 40.496094 29.609375 40.4375 29.039062 40.632812 C 30.195312 41.628906 31.441406 42.179688 32.761719 42.578125 C 33.171875 42.703125 33.664062 42.917969 33.988281 42.589844 C 34.289062 42.292969 33.984375 41.851562 33.875 41.382812 M 5.871094 82.445312 C 5.917969 82.164062 5.789062 81.976562 5.535156 81.902344 C 5.046875 81.761719 4.554688 81.636719 4.058594 81.523438 C 3.84375 81.472656 3.691406 81.601562 3.574219 81.777344 C 3.203125 82.3125 3.195312 82.960938 3.03125 83.558594 C 2.96875 83.785156 3.191406 83.886719 3.390625 83.945312 C 3.800781 84.066406 4.21875 84.175781 4.625 84.316406 C 4.964844 84.433594 5.148438 84.292969 5.269531 84 C 5.46875 83.511719 5.660156 83.023438 5.871094 82.445312 M 48.808594 81.589844 C 47.972656 82.367188 46.972656 82.929688 45.953125 83.65625 C 47.050781 83.96875 48.101562 84.339844 48.957031 83.589844 C 49.765625 82.878906 50.132812 81.84375 50.175781 80.691406 C 49.816406 81.140625 49.308594 81.289062 48.808594 81.589844 M 46.199219 81.085938 C 46.804688 80.351562 47.519531 79.703125 47.976562 78.851562 C 47.027344 78.21875 46.699219 78.269531 46.183594 79.160156 C 45.578125 80.210938 44.984375 81.273438 44.242188 82.238281 C 44.125 82.386719 43.976562 82.546875 44.1875 82.839844 C 44.964844 82.425781 45.535156 81.757812 46.199219 81.085938 M 46.996094 77.835938 C 47.007812 78.363281 47.484375 78.113281 47.722656 78.265625 C 48.179688 78.554688 48.472656 78.335938 48.734375 77.949219 C 49.132812 77.367188 49.5625 76.800781 49.964844 76.21875 C 50.074219 76.054688 50.253906 75.886719 50.136719 75.597656 C 49.78125 75.597656 49.390625 75.464844 49.074219 75.738281 C 48.351562 76.367188 47.574219 76.949219 46.996094 77.835938 M 5.726562 74.476562 C 5.605469 74.542969 5.59375 74.660156 5.585938 74.78125 C 5.5 76.1875 5.378906 77.59375 5.078125 78.976562 C 5.046875 79.121094 4.945312 79.304688 5.148438 79.386719 C 5.371094 79.472656 5.453125 79.300781 5.527344 79.125 C 5.941406 78.210938 6.183594 77.242188 6.390625 76.261719 C 6.542969 75.550781 6.34375 74.953125 5.726562 74.476562 M 44.679688 51.976562 C 44.917969 52.777344 45.328125 53.46875 45.996094 54.164062 C 46.054688 53.382812 46.171875 52.761719 46.101562 52.132812 C 46 51.253906 45.984375 51.257812 45.082031 51.28125 C 44.621094 51.296875 44.453125 51.449219 44.679688 51.976562 M 22.234375 25.839844 C 21.296875 26.121094 20.386719 26.445312 19.886719 27.402344 C 21.398438 26.691406 22.914062 25.996094 24.453125 25.347656 L 24.402344 25.210938 C 23.707031 25.40625 23.015625 25.605469 22.234375 25.839844 M 59.347656 54.902344 C 59.4375 55.253906 59.195312 55.597656 59.351562 56.066406 C 59.691406 54.367188 59.992188 52.777344 59.5625 51.148438 C 59.34375 52.355469 59.5 53.59375 59.347656 54.902344 "/>
<path style=" stroke:none;fill-rule:nonzero;fill:rgb(0%,0%,0%);fill-opacity:1;" d="M 74.1875 85.117188 C 74.660156 84.21875 75.15625 83.324219 75.3125 82.257812 C 75.488281 81.070312 75.421875 79.90625 75.210938 78.742188 C 74.75 76.195312 73.792969 73.804688 72.847656 71.414062 C 71.976562 69.214844 71.363281 66.949219 70.910156 64.628906 C 70.605469 63.070312 70.234375 61.523438 69.894531 59.96875 C 69.859375 59.820312 69.769531 59.675781 69.855469 59.519531 C 69.996094 59.398438 70.066406 59.554688 70.164062 59.59375 C 70.667969 59.800781 70.773438 59.734375 70.796875 59.179688 C 70.902344 56.484375 70.964844 53.792969 70.902344 51.097656 C 70.871094 49.742188 70.734375 48.390625 70.433594 47.066406 C 70.136719 45.753906 69.257812 44.957031 68.015625 44.558594 C 66.316406 44.007812 64.558594 43.828125 62.78125 43.828125 C 62.59375 43.828125 62.273438 43.738281 62.285156 44.070312 C 62.296875 44.382812 62.566406 44.3125 62.785156 44.285156 C 62.976562 44.261719 63.175781 44.222656 63.375 44.371094 C 63.21875 44.6875 62.855469 44.582031 62.632812 44.734375 C 62.710938 45.574219 62.90625 45.800781 63.707031 45.988281 C 65.5625 46.421875 66.914062 47.503906 67.800781 49.175781 C 67.878906 49.324219 68.027344 49.460938 67.890625 49.75 C 66.617188 48.222656 65.332031 46.75 63.203125 46.21875 C 63.46875 47.25 63.722656 48.167969 63.9375 49.09375 C 64.40625 51.125 64.652344 53.183594 64.753906 55.269531 C 64.871094 57.617188 64.726562 59.980469 65.300781 62.304688 C 65.765625 64.167969 66.078125 66.070312 66.453125 67.953125 C 66.492188 68.140625 66.519531 68.332031 66.464844 68.539062 C 65.710938 66.167969 65.316406 63.714844 64.742188 61.132812 C 64.507812 63.574219 64.382812 65.84375 64.453125 68.140625 C 64.546875 71.164062 64.414062 74.195312 64.027344 77.199219 C 63.738281 79.457031 63.410156 81.714844 62.46875 83.820312 C 62.285156 84.230469 62.070312 84.628906 61.867188 85.074219 C 61.582031 85.117188 61.300781 85.117188 60.988281 85.082031 C 61.210938 84.714844 61.355469 84.332031 61.492188 83.9375 C 62.953125 79.695312 63.164062 75.292969 63.113281 70.859375 C 62.773438 73.066406 62.492188 75.285156 62.117188 77.484375 C 61.636719 80.320312 61.144531 83.171875 58.671875 85.117188 L 57.546875 85.117188 C 57.566406 85.054688 57.628906 84.953125 57.710938 84.929688 C 59.527344 84.367188 60.25 82.863281 60.828125 81.265625 C 61.59375 79.144531 61.8125 76.910156 62.148438 74.695312 C 62.40625 72.972656 62.53125 71.226562 62.910156 69.519531 C 63.125 68.546875 63.246094 67.554688 63.550781 66.5625 C 63.550781 66.90625 63.597656 67.257812 63.542969 67.59375 C 63.308594 69.0625 63.429688 70.539062 63.449219 72.011719 C 63.480469 74.394531 63.355469 76.765625 63.023438 79.121094 C 62.769531 80.898438 62.394531 82.660156 61.746094 84.351562 C 62.332031 83.386719 62.625 82.3125 62.894531 81.230469 C 63.699219 77.988281 63.957031 74.675781 63.996094 71.359375 C 64.019531 69.675781 64.117188 67.984375 64 66.292969 C 63.851562 64.171875 64.3125 62.070312 64.367188 59.949219 C 64.429688 57.707031 64.453125 55.472656 64.203125 53.238281 C 63.917969 50.695312 63.5 48.171875 62.535156 45.789062 C 61.464844 43.140625 60.09375 40.652344 58.378906 38.355469 C 56.488281 35.816406 54.183594 33.742188 51.558594 32 C 51.445312 31.925781 51.367188 31.804688 51.253906 31.671875 C 51.996094 31.78125 52.601562 32.238281 53.203125 32.671875 C 56.6875 35.167969 59.390625 38.355469 61.265625 42.199219 C 61.742188 43.179688 62.253906 43.445312 63.292969 43.457031 C 65.152344 43.476562 67.011719 43.6875 68.773438 44.417969 C 69.902344 44.890625 70.480469 45.765625 70.816406 46.855469 C 71.160156 47.96875 71.292969 49.125 71.308594 50.285156 C 71.335938 52.347656 71.339844 54.410156 71.261719 56.476562 C 71.175781 58.734375 71.152344 61 71.238281 63.253906 C 71.332031 65.664062 71.96875 67.984375 72.808594 70.234375 C 73.539062 72.183594 74.363281 74.09375 74.984375 76.082031 C 75.53125 77.832031 75.882812 79.636719 75.820312 81.46875 C 75.78125 82.609375 75.554688 83.777344 74.84375 84.761719 C 74.789062 84.835938 74.773438 84.941406 74.734375 85.074219 C 74.566406 85.117188 74.402344 85.117188 74.1875 85.117188 "/>
<path style=" stroke:none;fill-rule:nonzero;fill:rgb(0%,0%,0%);fill-opacity:1;" d="M 54.597656 85.117188 C 56.25 84.488281 57.324219 83.167969 58.316406 81.726562 C 58.738281 81.113281 58.992188 80.464844 59.121094 79.742188 C 59.167969 79.476562 59.140625 79.160156 59.453125 78.886719 C 59.480469 80.230469 59.179688 81.421875 58.832031 82.621094 C 58.441406 83.96875 57.402344 84.558594 56.21875 85.085938 C 55.679688 85.117188 55.164062 85.117188 54.597656 85.117188 M 58.195312 83.050781 C 58.207031 83.015625 58.21875 82.976562 58.226562 82.941406 C 58.226562 82.929688 58.191406 82.90625 58.183594 82.910156 C 57.921875 83.058594 57.558594 83.136719 57.675781 83.703125 C 57.851562 83.488281 58.023438 83.269531 58.195312 83.050781 M 68.632812 85.117188 C 68.734375 84.390625 69.03125 83.699219 69.027344 82.9375 C 69.019531 81.28125 68.402344 79.800781 67.738281 78.328125 C 67.675781 78.1875 67.609375 78.046875 67.554688 77.898438 C 67.546875 77.875 67.582031 77.835938 67.613281 77.769531 C 67.917969 77.929688 68.015625 78.238281 68.144531 78.503906 C 68.613281 79.453125 69.039062 80.421875 69.304688 81.449219 C 69.328125 81.542969 69.328125 81.617188 69.4375 81.679688 C 69.695312 81.828125 69.90625 81.984375 69.480469 82.234375 C 69.371094 82.300781 69.355469 82.601562 69.367188 82.792969 C 69.414062 83.574219 69.222656 84.304688 68.953125 85.074219 C 68.855469 85.117188 68.765625 85.117188 68.632812 85.117188 M 38.324219 62.160156 C 38.226562 62.042969 38.164062 61.945312 38.265625 61.75 C 39.074219 62.019531 39.769531 62.523438 40.480469 62.976562 C 41.472656 63.605469 42.429688 64.300781 43.246094 65.164062 C 43.53125 65.464844 43.867188 65.4375 44.292969 65.3125 C 43.644531 64.175781 42.597656 63.464844 41.796875 62.53125 C 43.144531 63.300781 44.164062 64.40625 45.121094 65.789062 C 44.679688 65.734375 44.328125 65.582031 44.121094 66.023438 C 45.367188 67.621094 46.933594 69.039062 47.699219 71.0625 C 47.507812 71.101562 47.460938 71.128906 47.4375 71.117188 C 46.714844 70.699219 46.65625 70.722656 46.578125 71.597656 C 46.539062 72.015625 46.570312 72.445312 46.570312 72.933594 C 46.085938 72.707031 45.90625 72.25 45.589844 71.929688 C 45.445312 71.785156 45.40625 71.457031 45.058594 71.617188 C 44.933594 71.671875 44.859375 71.542969 44.796875 71.4375 C 43.621094 69.484375 41.929688 68.015625 40.210938 66.574219 C 38.996094 65.554688 37.796875 64.503906 36.371094 63.769531 C 36.273438 63.71875 36.195312 63.621094 36.019531 63.46875 C 36.59375 63.261719 37.089844 63.066406 37.59375 62.90625 C 37.972656 62.785156 38.179688 62.515625 38.324219 62.160156 M 22.226562 67.132812 C 22.078125 67.429688 21.871094 67.222656 21.714844 67.167969 C 20.972656 66.917969 20.265625 66.578125 19.605469 66.160156 C 19.175781 65.886719 18.867188 65.527344 19.015625 64.953125 C 19.285156 64.882812 19.339844 65.101562 19.402344 65.238281 C 19.648438 65.796875 20.09375 66.097656 20.640625 66.324219 C 21.179688 66.546875 21.6875 66.84375 22.226562 67.132812 M 23.695312 68.519531 C 24.066406 68.976562 24.410156 69.40625 24.765625 69.816406 C 24.992188 70.074219 25.3125 70.097656 25.628906 70.121094 C 25.855469 70.140625 26.105469 70.078125 26.308594 70.316406 C 26.140625 70.644531 25.855469 70.539062 25.613281 70.476562 C 24.339844 70.148438 23.703125 69.167969 23.082031 67.984375 C 23.449219 68.09375 23.535156 68.316406 23.695312 68.519531 "/>
</g>
</svg>
