<?xml version="1.0" encoding="UTF-8"?>
<svg xmlns="http://www.w3.org/2000/svg" xmlns:xlink="http://www.w3.org/1999/xlink" width="90px" height="90px" viewBox="0 0 90 90" version="1.1">
<g id="surface1">
<path style=" stroke:none;fill-rule:nonzero;fill:rgb(0%,0%,0%);fill-opacity:1;" d="M 90.175781 4.667969 C 89.742188 6.15625 88.570312 6.953125 87.542969 7.839844 C 80.390625 14.003906 74.019531 20.886719 68.402344 28.46875 C 68.246094 28.679688 68.066406 28.878906 68.023438 29.308594 C 69.121094 28.828125 70.148438 28.375 71.171875 27.925781 C 73.503906 26.90625 75.835938 25.871094 78.308594 25.238281 C 79.519531 24.929688 80.59375 25.441406 81.222656 26.496094 C 81.84375 27.542969 81.75 28.714844 80.882812 29.660156 C 79.851562 30.78125 78.746094 31.832031 77.710938 32.945312 C 72.910156 38.089844 68.417969 43.492188 63.976562 48.941406 C 61.753906 51.667969 59.546875 54.386719 57.972656 57.570312 C 56.375 60.796875 55.496094 64.234375 54.699219 67.726562 C 52.371094 77.925781 46.195312 84.828125 36.367188 88.328125 C 30.585938 90.386719 24.699219 90.140625 18.859375 88.355469 C 13.609375 86.75 9.25 83.835938 5.859375 79.503906 C 5.179688 78.636719 4.40625 77.800781 5.304688 76.628906 C 5.425781 76.472656 5.332031 76.292969 5.246094 76.132812 C 4.953125 75.59375 4.660156 75.054688 4.378906 74.507812 C 4.234375 74.222656 4.039062 74.042969 3.695312 74.0625 C 2.753906 74.113281 2.363281 73.496094 2.074219 72.734375 C 1.082031 70.125 0.476562 67.425781 0.195312 64.578125 C 0.175781 62.984375 0.175781 61.457031 0.175781 59.847656 C 0.429688 57.886719 0.691406 56.011719 1.246094 54.1875 C 2.269531 50.8125 3.734375 47.648438 6.070312 45.007812 C 11.472656 38.898438 15.742188 32.007812 20.171875 25.210938 C 24.300781 18.875 28.890625 12.871094 34.140625 7.398438 C 34.917969 6.585938 35.773438 5.933594 36.980469 6.160156 C 38.699219 6.480469 39.636719 8.015625 39.136719 9.730469 C 38.351562 12.425781 37.523438 15.105469 36.714844 17.796875 C 36.625 18.097656 36.550781 18.402344 36.457031 18.757812 C 36.898438 18.808594 37.160156 18.550781 37.441406 18.378906 C 46.472656 12.914062 56.003906 8.542969 66.066406 5.339844 C 67.042969 5.03125 68.023438 4.734375 69.007812 4.457031 C 70.058594 4.164062 70.746094 4.46875 71.003906 5.300781 C 71.257812 6.125 70.851562 6.777344 69.796875 7.097656 C 64.386719 8.738281 59.082031 10.664062 53.902344 12.9375 C 48.558594 15.28125 43.414062 18.003906 38.417969 21.015625 C 37.941406 21.300781 37.460938 21.589844 36.898438 21.667969 C 34.695312 21.976562 33.1875 20.167969 33.816406 17.910156 C 34.515625 15.398438 35.277344 12.910156 36.007812 10.410156 C 36.089844 10.132812 36.148438 9.851562 36.261719 9.390625 C 34.910156 10.414062 33.992188 11.613281 33.019531 12.75 C 27.0625 19.710938 21.945312 27.269531 17.167969 35.074219 C 14.835938 38.878906 11.984375 42.304688 9.09375 45.691406 C 5.816406 49.535156 3.742188 53.921875 3.09375 58.9375 C 2.550781 63.128906 3.066406 67.21875 4.558594 71.179688 C 4.941406 72.195312 5.269531 72.394531 6.285156 72.144531 C 7.382812 71.875 8.179688 72.378906 8.90625 73.035156 C 9.476562 73.554688 9.359375 74.21875 8.933594 74.785156 C 8.710938 75.082031 8.378906 75.296875 8.085938 75.535156 C 7.386719 76.109375 7.289062 76.613281 7.816406 77.34375 C 10.660156 81.269531 14.433594 83.90625 19.015625 85.425781 C 26.089844 87.777344 33.007812 87.453125 39.570312 83.871094 C 46.171875 80.265625 50.28125 74.648438 51.953125 67.304688 C 52.574219 64.566406 53.175781 61.832031 54.214844 59.207031 C 55.851562 55.070312 58.296875 51.460938 61.121094 48.058594 C 65.421875 42.875 69.671875 37.648438 74.199219 32.65625 C 75.339844 31.398438 76.550781 30.207031 77.726562 28.980469 C 77.964844 28.730469 78.1875 28.46875 78.558594 28.058594 C 76.273438 28.703125 74.300781 29.582031 72.316406 30.433594 C 70.625 31.160156 68.96875 31.976562 67.269531 32.699219 C 65.871094 33.296875 64.585938 32.769531 64.078125 31.476562 C 63.765625 30.683594 63.976562 29.980469 64.429688 29.320312 C 66.363281 26.492188 68.417969 23.75 70.605469 21.109375 C 75.476562 15.226562 80.871094 9.867188 86.652344 4.890625 C 86.785156 4.777344 86.929688 4.671875 87.050781 4.542969 C 87.265625 4.3125 87.554688 4.082031 87.316406 3.714844 C 87.109375 3.394531 86.800781 3.40625 86.457031 3.464844 C 83.082031 4.019531 79.710938 4.582031 76.386719 5.402344 C 75.929688 5.511719 75.472656 5.625 75.007812 5.664062 C 74.179688 5.738281 73.585938 5.292969 73.453125 4.570312 C 73.328125 3.898438 73.753906 3.1875 74.535156 2.984375 C 75.890625 2.628906 77.261719 2.320312 78.640625 2.054688 C 81.105469 1.578125 83.578125 1.140625 86.050781 0.703125 C 87.976562 0.363281 89.464844 1.234375 90.148438 3.109375 C 90.175781 3.640625 90.175781 4.113281 90.175781 4.667969 M 5.054688 74.710938 C 5.226562 75.121094 5.519531 75.308594 5.957031 75.164062 C 6.171875 75.09375 6.296875 74.921875 6.253906 74.691406 C 6.191406 74.347656 5.996094 74.089844 5.636719 74.039062 C 5.246094 73.988281 5.039062 74.195312 5.054688 74.710938 Z M 5.054688 74.710938 "/>
<path style=" stroke:none;fill-rule:nonzero;fill:rgb(0%,0%,0%);fill-opacity:1;" d="M 45.691406 53.046875 C 46.734375 52.511719 47.328125 52.683594 47.851562 53.617188 C 51.105469 59.421875 49.441406 67.160156 44.015625 71.070312 C 40.6875 73.46875 37.238281 75.699219 33.703125 77.765625 C 28.347656 80.898438 20.605469 80.78125 15.917969 75.828125 C 13.054688 72.800781 10.421875 69.484375 9.332031 65.289062 C 8.359375 61.535156 9.171875 58.082031 11.011719 54.738281 C 13.539062 50.132812 17.171875 46.507812 21.359375 43.535156 C 25.960938 40.265625 30.988281 40.210938 35.9375 42.96875 C 38.757812 44.542969 41.347656 46.464844 43.667969 48.726562 C 44.582031 49.617188 44.582031 50.703125 43.632812 51.214844 C 42.902344 51.605469 42.328125 51.269531 41.816406 50.777344 C 39.933594 48.960938 37.824219 47.441406 35.644531 46.003906 C 30.761719 42.789062 25.335938 43.238281 21.101562 47.261719 C 20.488281 47.847656 19.878906 48.441406 19.226562 48.984375 C 16.6875 51.097656 14.78125 53.707031 13.207031 56.578125 C 11.058594 60.496094 11.171875 64.371094 13.589844 68.121094 C 14.679688 69.816406 15.855469 71.476562 17.132812 73.03125 C 19.945312 76.457031 23.679688 77.398438 27.941406 76.851562 C 30.222656 76.5625 32.164062 75.550781 34.035156 74.304688 C 36.570312 72.617188 39.136719 70.980469 41.695312 69.324219 C 46.320312 66.335938 48 60.605469 45.734375 55.585938 C 45.371094 54.777344 44.78125 53.957031 45.691406 53.046875 Z M 45.691406 53.046875 "/>
<path style=" stroke:none;fill-rule:nonzero;fill:rgb(0%,0%,0%);fill-opacity:1;" d="M 30.4375 65.804688 C 27.902344 66.003906 26.082031 64.515625 25.835938 62.101562 C 25.628906 60.082031 27.253906 58.203125 29.464844 57.90625 C 31.355469 57.65625 33.210938 58.964844 33.722656 60.910156 C 34.21875 62.800781 33.191406 64.820312 31.347656 65.558594 C 31.078125 65.667969 30.789062 65.71875 30.4375 65.804688 Z M 30.4375 65.804688 "/>
<path style=" stroke:none;fill-rule:nonzero;fill:rgb(0%,0%,0%);fill-opacity:1;" d="M 21.546875 66.316406 C 21.925781 66.6875 22.289062 66.992188 22.582031 67.355469 C 23.074219 67.96875 23.03125 68.621094 22.503906 69.179688 C 21.960938 69.753906 21.308594 69.773438 20.683594 69.308594 C 20.359375 69.066406 20.066406 68.769531 19.792969 68.46875 C 19.277344 67.898438 19.054688 67.265625 19.539062 66.5625 C 19.957031 65.957031 20.617188 65.867188 21.546875 66.316406 Z M 21.546875 66.316406 "/>
<path style=" stroke:none;fill-rule:nonzero;fill:rgb(0%,0%,0%);fill-opacity:1;" d="M 34.789062 51.421875 C 35.984375 51.1875 37.519531 52.402344 37.554688 53.527344 C 37.578125 54.429688 36.667969 55.167969 35.820312 54.832031 C 35.015625 54.515625 34.378906 53.902344 34.074219 53.085938 C 33.824219 52.421875 34.082031 51.824219 34.789062 51.421875 Z M 34.789062 51.421875 "/>
<path style=" stroke:none;fill-rule:nonzero;fill:rgb(0%,0%,0%);fill-opacity:1;" d="M 56.480469 4.597656 C 56.367188 5.722656 55.757812 6.308594 54.890625 6.191406 C 54.136719 6.085938 53.648438 5.378906 53.738281 4.515625 C 53.820312 3.699219 54.492188 3.175781 55.328125 3.292969 C 56.035156 3.390625 56.363281 3.859375 56.480469 4.597656 Z M 56.480469 4.597656 "/>
<path style=" stroke:none;fill-rule:nonzero;fill:rgb(0%,0%,0%);fill-opacity:1;" d="M 45.703125 10.464844 C 45.246094 11.421875 44.71875 11.742188 44.003906 11.527344 C 43.238281 11.296875 42.972656 10.726562 43.015625 9.984375 C 43.054688 9.257812 43.441406 8.792969 44.175781 8.671875 C 45.097656 8.523438 45.710938 9.214844 45.703125 10.464844 Z M 45.703125 10.464844 "/>
<path style=" stroke:none;fill-rule:nonzero;fill:rgb(0%,0%,0%);fill-opacity:1;" d="M 82.34375 17.621094 C 82.890625 17.785156 83.230469 18.070312 83.363281 18.566406 C 83.621094 19.527344 83.164062 20.332031 82.269531 20.507812 C 81.496094 20.660156 80.742188 20.039062 80.660156 19.183594 C 80.578125 18.257812 81.226562 17.621094 82.34375 17.621094 Z M 82.34375 17.621094 "/>
<path style=" stroke:none;fill-rule:nonzero;fill:rgb(0%,0%,0%);fill-opacity:1;" d="M 79.3125 40.898438 C 78.839844 41.917969 78.285156 42.273438 77.546875 42.011719 C 76.8125 41.757812 76.527344 41.179688 76.59375 40.421875 C 76.660156 39.703125 77.238281 39.160156 77.925781 39.15625 C 78.753906 39.148438 79.25 39.742188 79.3125 40.898438 Z M 79.3125 40.898438 "/>
</g>
</svg>
